<svg width="9.000000" height="9.000000" viewBox="0 0 9 9" fill="none" xmlns="http://www.w3.org/2000/svg" xmlns:xlink="http://www.w3.org/1999/xlink">

	<defs>
		<clipPath id="clip41_471">
			<rect id="close (12) 1" width="9.000000" height="9.000000" fill="white" fill-opacity="0"/>
		</clipPath>
	</defs>
	<rect id="close (12) 1" width="9.000000" height="9.000000" fill="#FFFFFF" fill-opacity="0"/>
	<g clip-path="url(#clip41_471)">
		<path id="Vector" d="M5.32 4.5L8.82 1C9.05 0.77 9.05 0.4 8.82 0.17C8.6 -0.05 8.23 -0.05 8 0.17L4.5 3.68L0.99 0.17C0.76 -0.05 0.39 -0.05 0.17 0.17C-0.06 0.4 -0.06 0.77 0.17 1L3.67 4.5L0.17 8.01C-0.06 8.23 -0.06 8.6 0.17 8.83C0.28 8.95 0.43 9 0.58 9C0.73 9 0.88 8.95 0.99 8.83L4.5 5.33L8 8.83C8.11 8.95 8.26 9 8.41 9C8.56 9 8.71 8.95 8.82 8.83C9.05 8.6 9.05 8.23 8.82 8.01L5.32 4.5Z" fill="#EE4F3A" fill-opacity="1.000000" fill-rule="nonzero"/>
	</g>
</svg>
