<svg width="19.000000" height="18.000000" viewBox="0 0 19 18" fill="none" xmlns="http://www.w3.org/2000/svg" xmlns:xlink="http://www.w3.org/1999/xlink">

	<defs/>
	<path id="Vector" d="M17.38 0.99C15.3 -1.05 11.97 -1.05 9.89 0.99L1.16 9.72C-0.42 11.33 -0.39 13.92 1.23 15.5C2.82 17.06 5.36 17.06 6.94 15.5L14.85 7.6C15.88 6.57 15.88 4.9 14.85 3.87C13.82 2.85 12.16 2.85 11.13 3.87L3.57 11.44C3.3 11.71 3.31 12.15 3.58 12.41C3.85 12.67 4.27 12.67 4.54 12.41L12.1 4.85C12.6 4.37 13.4 4.38 13.88 4.88C14.34 5.37 14.34 6.14 13.88 6.62L5.97 14.53C4.9 15.58 3.18 15.57 2.13 14.5C1.09 13.45 1.09 11.75 2.13 10.69L10.86 1.96C12.42 0.4 14.94 0.4 16.5 1.96C18.05 3.51 18.05 6.04 16.5 7.59L7.77 16.32C7.48 16.57 7.44 17 7.69 17.29C7.94 17.58 8.37 17.61 8.66 17.37C8.69 17.34 8.71 17.32 8.74 17.29L17.47 8.56C19.54 6.45 19.5 3.05 17.38 0.99Z" fill="#5887FF" fill-opacity="1.000000" fill-rule="nonzero"/>
</svg>
